<?xml version="1.0" standalone="no"?>
<!DOCTYPE svg PUBLIC "-//W3C//DTD SVG 20010904//EN"
 "http://www.w3.org/TR/2001/REC-SVG-20010904/DTD/svg10.dtd">
<svg version="1.0" xmlns="http://www.w3.org/2000/svg"
 width="260.000000pt" height="260.000000pt" viewBox="0 0 260.000000 260.000000"
 preserveAspectRatio="xMidYMid meet">
<metadata>
Created by potrace 1.11, written by Peter Selinger 2001-2013
</metadata>
<g transform="translate(0.000000,260.000000) scale(0.100000,-0.100000)"
fill="#000000" stroke="none">
<path d="M0 1300 l0 -1300 1300 0 1300 0 0 1300 0 1300 -1300 0 -1300 0 0
-1300z m1344 1072 l51 -17 -3 -80 c-2 -44 -16 -377 -32 -740 -16 -362 -28
-660 -26 -662 1 -2 142 331 313 740 l309 742 207 3 c114 1 207 -1 207 -6 0
-10 -288 -2027 -295 -2069 l-6 -33 -204 0 c-161 0 -205 3 -205 13 0 7 38 280
85 607 47 327 84 601 83 609 -2 8 -120 -265 -263 -607 l-260 -622 -199 0 -199
0 7 108 c3 59 15 321 26 582 11 261 21 500 23 530 3 38 1 49 -5 35 -5 -11
-111 -297 -236 -635 l-228 -615 -117 -3 -117 -3 31 83 c17 46 179 485 360 976
182 492 328 896 326 899 -10 10 -152 -66 -210 -112 -127 -101 -209 -260 -225
-438 -9 -99 -2 -199 18 -248 7 -16 10 -32 7 -35 -13 -13 -146 19 -194 46 -41
24 -57 40 -78 85 -26 52 -27 62 -23 153 6 113 31 183 102 291 143 215 434 402
686 440 84 13 220 4 284 -17z"/>
</g>
</svg>
